<!-- icon666.com - MILLIONS vector ICONS FREE --><svg id="Capa_1" enable-background="new 0 0 512 512" viewBox="0 0 512 512" xmlns="http://www.w3.org/2000/svg"><g><path d="m191.733 94.267h305.267c8.284 0 15-6.716 15-15s-6.716-15-15-15h-305.267c-8.284 0-15 6.716-15 15s6.716 15 15 15z" fill="#000000" style="fill: rgb(255, 255, 255);"></path><path d="m497 241h-305.267c-8.284 0-15 6.716-15 15s6.716 15 15 15h305.267c8.284 0 15-6.716 15-15s-6.716-15-15-15z" fill="#000000" style="fill: rgb(255, 255, 255);"></path><path d="m497 417.733h-305.267c-8.284 0-15 6.716-15 15s6.716 15 15 15h305.267c8.284 0 15-6.716 15-15s-6.716-15-15-15z" fill="#000000" style="fill: rgb(255, 255, 255);"></path><ellipse cx="63.2" cy="79.267" rx="63.2" ry="63.2" transform="matrix(.707 -.707 .707 .707 -37.539 67.906)" fill="#000000" style="fill: rgb(255, 255, 255);"></ellipse><ellipse cx="63.2" cy="256" rx="63.2" ry="63.2" transform="matrix(.383 -.924 .924 .383 -197.499 216.422)" fill="#000000" style="fill: rgb(255, 255, 255);"></ellipse><ellipse cx="63.2" cy="432.733" rx="63.2" ry="63.2" transform="matrix(.973 -.23 .23 .973 -97.731 26.096)" fill="#000000" style="fill: rgb(255, 255, 255);"></ellipse></g></svg>